<?xml version="1.0" encoding="UTF-8"?>
<svg width="141px" height="138px" viewBox="0 0 141 138" version="1.1" xmlns="http://www.w3.org/2000/svg" xmlns:xlink="http://www.w3.org/1999/xlink">
    <!-- Generator: Sketch 55.2 (78181) - https://sketchapp.com -->
    <title>Group 11 Copy</title>
    <desc>Created with Sketch.</desc>
    <g id="Page-1-Copy-3" stroke="none" stroke-width="1" fill="none" fill-rule="evenodd">
        <g id="Individual-Project-Vote-Complete" transform="translate(-451.000000, -354.000000)">
            <g id="Group-12-Copy" transform="translate(324.000000, 301.000000)">
                <g id="Group-11-Copy" transform="translate(130.000000, 56.000000)">
                    <path d="M63.2573593,66 L48.7616703,51.504311 C47.5900974,50.3327381 47.5900974,48.4332432 48.7616703,47.2616703 C49.9332432,46.0900974 51.8327381,46.0900974 53.004311,47.2616703 L67.5,61.7573593 L81.995689,47.2616703 C83.1672619,46.0900974 85.0667568,46.0900974 86.2383297,47.2616703 C87.4099026,48.4332432 87.4099026,50.3327381 86.2383297,51.504311 L71.7426407,66 L86.2383297,80.495689 C87.4099026,81.6672619 87.4099026,83.5667568 86.2383297,84.7383297 C85.0667568,85.9099026 83.1672619,85.9099026 81.995689,84.7383297 L67.5,70.2426407 L53.004311,84.7383297 C51.8327381,85.9099026 49.9332432,85.9099026 48.7616703,84.7383297 C47.5900974,83.5667568 47.5900974,81.6672619 48.7616703,80.495689 L63.2573593,66 Z" id="Combined-Shape" fill="#FFFFFF"></path>
                    <ellipse id="Oval-Copy" stroke="#FFFFFF" stroke-width="6" cx="67.5" cy="66" rx="67.5" ry="66"></ellipse>
                </g>
            </g>
        </g>
    </g>
</svg>