<svg width="17" height="12" viewBox="0 0 17 12" fill="none" xmlns="http://www.w3.org/2000/svg">
<path d="M2.688 10.96C3.34934 11.2267 4.07467 11.36 4.864 11.36C5.74934 11.36 6.52267 11.1947 7.184 10.864C7.856 10.5227 8.37334 10.032 8.736 9.392C9.09867 8.752 9.28 7.98933 9.28 7.104V5.71474C9.28162 5.71808 9.28324 5.72142 9.28485 5.72477V1.84H11.2689C12.1649 1.84 12.8209 2.048 13.2369 2.464C13.6635 2.88 13.8875 3.52533 13.9089 4.39999C13.9302 5.01866 13.9409 5.41333 13.9409 5.584C13.9409 5.744 13.9302 6.144 13.9089 6.784C13.8875 7.70133 13.6795 8.36266 13.2849 8.768C12.8902 9.16266 12.2449 9.36 11.3489 9.36H9.29226C8.92383 10.1324 8.32689 10.7749 7.5889 11.2H11.4289C13.0182 11.2 14.1915 10.848 14.9489 10.144C15.7062 9.42933 16.1062 8.32533 16.1489 6.832C16.1702 6.21333 16.1809 5.80267 16.1809 5.6C16.1809 5.38667 16.1702 4.97066 16.1489 4.352C16.0849 1.45066 14.4849 0 11.3489 0H1.568C1.46134 0 1.37067 0.0373325 1.296 0.112C1.22134 0.175999 1.184 0.266662 1.184 0.383995V1.504C1.184 1.61066 1.22134 1.70133 1.296 1.77599C1.37067 1.85066 1.46134 1.888 1.568 1.888H6.992V7.03999C6.992 7.81866 6.81067 8.42667 6.448 8.864C6.096 9.30133 5.584 9.52 4.912 9.52C4.336 9.52 3.86134 9.38666 3.488 9.12C3.12534 8.85333 2.90667 8.44267 2.832 7.888C2.74667 7.61067 2.58667 7.472 2.352 7.472H0.832002C0.736002 7.472 0.656002 7.50933 0.592002 7.584C0.528002 7.648 0.496002 7.728 0.496002 7.824C0.517336 8.58133 0.725335 9.22666 1.12 9.75999C1.51467 10.2933 2.03734 10.6933 2.688 10.96Z" fill="#fff"/>
</svg>
