<?xml version="1.0" encoding="UTF-8"?>
<svg width="141px" height="138px" viewBox="0 0 141 138" version="1.1" xmlns="http://www.w3.org/2000/svg" xmlns:xlink="http://www.w3.org/1999/xlink">
    <!-- Generator: Sketch 55.2 (78181) - https://sketchapp.com -->
    <title>Group 11</title>
    <desc>Created with Sketch.</desc>
    <g id="Page-1-Copy-3" stroke="none" stroke-width="1" fill="none" fill-rule="evenodd">
        <g id="Individual-Project-Vote-Complete" transform="translate(-650.000000, -354.000000)">
            <g id="Group-12-Copy" transform="translate(324.000000, 301.000000)">
                <g id="Group-11" transform="translate(329.000000, 56.000000)">
                    <path d="M57.0771933,76.9572994 L88.2892893,46.4301966 C89.4543016,45.2907521 91.3158687,45.2896983 92.4821703,46.427823 L92.6404051,46.582235 C93.8262145,47.7393962 93.8494385,49.6387492 92.6922773,50.8245586 C92.6751986,50.8420601 92.6579066,50.8593521 92.6404051,50.8764307 L59.172419,83.5358574 C58.0070621,84.6730602 56.1473245,84.6730602 54.9819676,83.5358574 L41.7364721,70.6103624 C40.5506627,69.4532011 40.5274387,67.5538482 41.6846,66.3680388 C41.6957098,66.3566538 41.7069101,66.3453575 41.7181997,66.3341507 L41.8399953,66.2132483 C43.0026676,65.0591035 44.8762261,65.0510977 46.0487192,66.1952643 L57.0771933,76.9572994 Z" id="check---material-copy" fill="#FFFFFF"></path>
                    <ellipse id="Oval-Copy" stroke="#FFFFFF" stroke-width="6" cx="67.5" cy="66" rx="67.5" ry="66"></ellipse>
                </g>
            </g>
        </g>
    </g>
</svg>